<svg width="7766" height="5515" viewBox="0 0 7766 5515" fill="none" xmlns="http://www.w3.org/2000/svg">
<path d="M0.000732422 257.67H64.4259V322.105H128.851V257.67V193.254H0.000732422V257.67Z" fill="white"/>
<path d="M257.704 257.67H193.279V322.085H257.704C293.284 322.085 322.129 293.244 322.129 257.67V193.254H257.704V257.67Z" fill="#214FCF"/>
<path d="M0.000732422 64.4196V128.835H64.4259V64.4196H128.851V0.00390625H64.4259C28.8458 0.00390625 0.000732422 28.8447 0.000732422 64.4196Z" fill="#214FCF"/>
<path d="M785.763 1267.88H850.188V1203.44H914.613V1267.88V1332.29H785.763V1267.88Z" fill="white"/>
<path d="M1043.47 1525.54H979.041V1461.13H1043.47V1396.71H1107.89V1461.13C1107.89 1496.7 1079.05 1525.54 1043.47 1525.54Z" fill="#214FCF"/>
<path d="M1107.9 64.4359L1043.48 64.4359L1043.48 0.000558943L979.053 0.000553311L979.053 64.4359L979.053 128.852L1107.9 128.852L1107.9 64.4359Z" fill="white"/>
<path d="M850.2 64.4359L914.625 64.4359L914.625 0.0201874L850.2 0.0201817C814.62 0.0201786 785.775 28.861 785.775 64.4359L785.775 128.852L850.2 128.852L850.2 64.4359Z" fill="#214FCF"/>
<path d="M1107.9 257.686L1107.9 193.27L1043.48 193.27L1043.48 257.686L979.053 257.686L979.053 322.102L1043.48 322.102C1079.06 322.102 1107.9 293.261 1107.9 257.686Z" fill="#214FCF"/>
<path d="M1893.67 1461.11L1829.24 1461.11L1829.24 1525.55L1764.82 1525.55L1764.82 1461.11L1764.82 1396.7L1893.67 1396.7L1893.67 1461.11Z" fill="white"/>
<path d="M1893.67 1267.86L1893.67 1332.28L1829.24 1332.28L1829.24 1267.86L1764.82 1267.86L1764.82 1203.45L1829.24 1203.45C1864.82 1203.45 1893.67 1232.29 1893.67 1267.86Z" fill="#214FCF"/>
<path d="M64.4451 399.957L64.4451 464.382L0.00984115 464.382L0.00984038 528.807L64.4451 528.807L128.861 528.807L128.861 399.957L64.4451 399.957Z" fill="white"/>
<path d="M322.111 657.66L322.111 593.234L257.696 593.234L257.696 657.66L193.28 657.66L193.28 722.085L257.696 722.085C293.271 722.085 322.111 693.24 322.111 657.66Z" fill="#214FCF"/>
<path d="M64.4451 657.66L64.4451 593.234L0.0294647 593.234L0.029464 657.66C0.0294635 693.24 28.8703 722.085 64.4451 722.085L128.861 722.085L128.861 657.66L64.4451 657.66Z" fill="#214FCF"/>
<path d="M457.334 722.082L457.334 657.657L392.899 657.657L392.899 593.232L457.334 593.232L521.75 593.232L521.75 722.082L457.334 722.082Z" fill="white"/>
<path d="M715 464.379L715 528.805L650.584 528.805L650.584 464.379L586.169 464.379L586.169 399.954L650.584 399.954C686.159 399.954 715 428.799 715 464.379Z" fill="#214FCF"/>
<path d="M1436.33 1925.53L1436.33 1861.1L1500.77 1861.1L1500.77 1796.67L1436.33 1796.67L1371.92 1796.67L1371.92 1925.53L1436.33 1925.53Z" fill="white"/>
<path d="M1178.67 1667.82L1178.67 1732.25L1243.08 1732.25L1243.08 1667.82L1307.5 1667.82L1307.5 1603.4L1243.08 1603.4C1207.51 1603.4 1178.67 1632.24 1178.67 1667.82Z" fill="#214FCF"/>
<path d="M1436.33 1667.82L1436.33 1732.25L1500.75 1732.25L1500.75 1667.82C1500.75 1632.24 1471.91 1603.4 1436.33 1603.4L1371.92 1603.4L1371.92 1667.82L1436.33 1667.82Z" fill="#214FCF"/>
<path d="M1436.35 399.957L1436.35 464.382L1500.78 464.382L1500.78 528.807L1436.35 528.807L1371.93 528.807L1371.93 399.957L1436.35 399.957Z" fill="white"/>
<path d="M1178.68 657.66L1178.68 593.234L1243.1 593.234L1243.1 657.66L1307.51 657.66L1307.51 722.085L1243.1 722.085C1207.52 722.085 1178.68 693.24 1178.68 657.66Z" fill="#214FCF"/>
<path d="M1436.35 657.66L1436.35 593.234L1500.76 593.234L1500.76 657.66C1500.76 693.24 1471.92 722.085 1436.35 722.085L1371.93 722.085L1371.93 657.66L1436.35 657.66Z" fill="#214FCF"/>
<path d="M1436.35 1199.89L1436.35 1264.32L1500.78 1264.32L1500.78 1328.74L1436.35 1328.74L1371.93 1328.74L1371.93 1199.89L1436.35 1199.89Z" fill="white"/>
<path d="M1436.35 1457.6L1436.35 1393.17L1500.76 1393.17L1500.76 1457.6C1500.76 1493.18 1471.92 1522.02 1436.35 1522.02L1371.93 1522.02L1371.93 1457.6L1436.35 1457.6Z" fill="#214FCF"/>
<path d="M1243.1 1199.89L1307.51 1199.89L1307.51 1264.32L1243.1 1264.32L1243.1 1328.74L1178.68 1328.74L1178.68 1264.32C1178.68 1228.74 1207.52 1199.89 1243.1 1199.89Z" fill="#214FCF"/>
<path d="M1436.33 2725.46L1436.33 2661.04L1500.77 2661.04L1500.77 2596.61L1436.33 2596.61L1371.92 2596.61L1371.92 2725.46L1436.33 2725.46Z" fill="white"/>
<path d="M1436.33 2467.76L1436.33 2532.19L1500.75 2532.19L1500.75 2467.76C1500.75 2432.18 1471.91 2403.34 1436.33 2403.34L1371.92 2403.34L1371.92 2467.76L1436.33 2467.76Z" fill="#214FCF"/>
<path d="M1243.08 2725.46L1307.5 2725.46L1307.5 2661.04L1243.08 2661.04L1243.08 2596.61L1178.67 2596.61L1178.67 2661.04C1178.67 2696.62 1207.51 2725.46 1243.08 2725.46Z" fill="#214FCF"/>
<path d="M457.334 1522.02L457.334 1457.59L392.899 1457.59L392.899 1393.17L457.334 1393.17L521.75 1393.17L521.75 1522.02L457.334 1522.02Z" fill="white"/>
<path d="M715 1264.32L715 1328.74L650.584 1328.74L650.584 1264.32L586.169 1264.32L586.169 1199.89L650.584 1199.89C686.159 1199.89 715 1228.74 715 1264.32Z" fill="#214FCF"/>
<path d="M650.584 1522.02L586.169 1522.02L586.169 1457.59L650.584 1457.59L650.584 1393.17L715 1393.17L715 1457.59C715 1493.17 686.159 1522.02 650.584 1522.02Z" fill="#214FCF"/>
<path d="M457.32 2403.34L457.32 2467.76L392.885 2467.76L392.885 2532.19L457.32 2532.19L521.736 2532.19L521.736 2403.34L457.32 2403.34Z" fill="white"/>
<path d="M714.986 2661.04L714.986 2596.61L650.571 2596.61L650.571 2661.04L586.155 2661.04L586.155 2725.46L650.571 2725.46C686.146 2725.46 714.986 2696.62 714.986 2661.04Z" fill="#214FCF"/>
<path d="M0.000732422 1057.61H64.4259V1122.04H128.851L128.851 1057.61V993.189H0.000732422L0.000732422 1057.61Z" fill="white"/>
<path d="M257.704 799.939H193.279V864.355H257.704V928.771H322.129V864.355C322.129 828.78 293.284 799.939 257.704 799.939Z" fill="#214FCF"/>
<path d="M257.704 1057.61H193.279L193.279 1122.02H257.704C293.284 1122.02 322.129 1093.18 322.129 1057.61V993.189H257.704V1057.61Z" fill="#214FCF"/>
<path d="M785.763 2067.81H850.188V2003.38H914.613V2067.81V2132.23H785.763V2067.81Z" fill="white"/>
<path d="M1043.47 2067.81H979.041V2003.4H1043.47C1079.05 2003.4 1107.89 2032.24 1107.89 2067.81V2132.23H1043.47V2067.81Z" fill="#214FCF"/>
<path d="M785.763 2261.06V2196.65H850.188V2261.06H914.613V2325.48H850.188C814.608 2325.48 785.763 2296.64 785.763 2261.06Z" fill="#214FCF"/>
<path d="M1107.9 864.371L1043.48 864.371L1043.48 799.936L979.053 799.936L979.053 864.371L979.053 928.787L1107.9 928.787L1107.9 864.371Z" fill="white"/>
<path d="M850.2 864.371L914.625 864.371L914.625 799.956L850.2 799.956C814.62 799.956 785.775 828.797 785.775 864.371L785.775 928.787L850.2 928.787L850.2 864.371Z" fill="#214FCF"/>
<path d="M1107.9 1057.62L1107.9 993.206L1043.48 993.206L1043.48 1057.62L979.053 1057.62L979.053 1122.04L1043.48 1122.04C1079.06 1122.04 1107.9 1093.2 1107.9 1057.62Z" fill="#214FCF"/>
<path d="M1500.79 1057.61L1436.37 1057.61L1436.37 1122.04L1371.94 1122.04L1371.94 1057.61L1371.94 993.189L1500.79 993.189L1500.79 1057.61Z" fill="white"/>
<path d="M1243.09 1057.61L1307.51 1057.61L1307.51 1122.02L1243.09 1122.02C1207.51 1122.02 1178.66 1093.18 1178.66 1057.61L1178.66 993.189L1243.09 993.189L1243.09 1057.61Z" fill="#214FCF"/>
<path d="M1500.79 864.355L1500.79 928.771L1436.37 928.771L1436.37 864.355L1371.94 864.355L1371.94 799.939L1436.37 799.939C1471.95 799.939 1500.79 828.78 1500.79 864.355Z" fill="#214FCF"/>
<path d="M1957.37 2467.8H2021.79V2403.36H2086.22V2467.8V2532.21H1957.37V2467.8Z" fill="white"/>
<path d="M2215.07 2467.8H2150.64V2403.38H2215.07C2250.65 2403.38 2279.49 2432.22 2279.49 2467.8V2532.21H2215.07V2467.8Z" fill="#214FCF"/>
<path d="M1957.37 2661.05V2596.63H2021.79V2661.05H2086.22V2725.46H2021.79C1986.21 2725.46 1957.37 2696.62 1957.37 2661.05Z" fill="#214FCF"/>
<path d="M2743.13 1457.59H2807.55V1522.02H2871.98V1457.59V1393.17H2743.13V1457.59Z" fill="white"/>
<path d="M3000.83 1199.92H2936.41V1264.34H3000.83V1328.75H3065.26V1264.34C3065.26 1228.76 3036.41 1199.92 3000.83 1199.92Z" fill="#214FCF"/>
<path d="M3065.27 2661.03L3000.84 2661.03L3000.84 2725.46L2936.42 2725.46L2936.42 2661.03L2936.42 2596.61L3065.27 2596.61L3065.27 2661.03Z" fill="white"/>
<path d="M2807.57 2661.03L2871.99 2661.03L2871.99 2725.44L2807.57 2725.44C2771.98 2725.44 2743.14 2696.6 2743.14 2661.03L2743.14 2596.61L2807.57 2596.61L2807.57 2661.03Z" fill="#214FCF"/>
<path d="M3065.27 2467.78L3065.27 2532.19L3000.84 2532.19L3000.84 2467.78L2936.42 2467.78L2936.42 2403.36L3000.84 2403.36C3036.42 2403.36 3065.27 2432.2 3065.27 2467.78Z" fill="#214FCF"/>
<path d="M3851.03 1264.35L3786.61 1264.35L3786.61 1199.92L3722.18 1199.92L3722.18 1264.35L3722.18 1328.77L3851.03 1328.77L3851.03 1264.35Z" fill="white"/>
<path d="M3851.03 1457.6L3851.03 1393.19L3786.61 1393.19L3786.61 1457.6L3722.18 1457.6L3722.18 1522.02L3786.61 1522.02C3822.19 1522.02 3851.03 1493.18 3851.03 1457.6Z" fill="#214FCF"/>
<path d="M2021.81 2325.51L2021.81 2261.08L1957.37 2261.08L1957.37 2196.66L2021.81 2196.66L2086.23 2196.66L2086.23 2325.51L2021.81 2325.51Z" fill="white"/>
<path d="M2279.48 2067.8L2279.48 2132.23L2215.06 2132.23L2215.06 2067.8L2150.64 2067.8L2150.64 2003.38L2215.06 2003.38C2250.64 2003.38 2279.48 2032.22 2279.48 2067.8Z" fill="#214FCF"/>
<path d="M2021.81 2067.8L2021.81 2132.23L1957.39 2132.23L1957.39 2067.8C1957.39 2032.22 1986.23 2003.38 2021.81 2003.38L2086.23 2003.38L2086.23 2067.8L2021.81 2067.8Z" fill="#214FCF"/>
<path d="M2414.7 2003.38L2414.7 2067.81L2350.26 2067.81L2350.26 2132.23L2414.7 2132.23L2479.11 2132.23L2479.11 2003.38L2414.7 2003.38Z" fill="white"/>
<path d="M2672.37 2261.09L2672.37 2196.66L2607.95 2196.66L2607.95 2261.09L2543.53 2261.09L2543.53 2325.51L2607.95 2325.51C2643.52 2325.51 2672.37 2296.67 2672.37 2261.09Z" fill="#214FCF"/>
<path d="M3393.7 799.939L3393.7 864.365L3458.13 864.365L3458.13 928.79L3393.7 928.79L3329.28 928.79L3329.28 799.939L3393.7 799.939Z" fill="white"/>
<path d="M3136.03 1057.64L3136.03 993.217L3200.45 993.217L3200.45 1057.64L3264.86 1057.64L3264.86 1122.07L3200.45 1122.07C3164.87 1122.07 3136.03 1093.22 3136.03 1057.64Z" fill="#214FCF"/>
<path d="M3393.7 1057.64L3393.7 993.217L3458.11 993.217L3458.11 1057.64C3458.11 1093.22 3429.27 1122.07 3393.7 1122.07L3329.28 1122.07L3329.28 1057.64L3393.7 1057.64Z" fill="#214FCF"/>
<path d="M3393.71 2325.51L3393.71 2261.08L3458.15 2261.08L3458.15 2196.66L3393.71 2196.66L3329.3 2196.66L3329.3 2325.51L3393.71 2325.51Z" fill="white"/>
<path d="M3136.04 2067.8L3136.04 2132.23L3200.46 2132.23L3200.46 2067.8L3264.88 2067.8L3264.88 2003.38L3200.46 2003.38C3164.89 2003.38 3136.04 2032.22 3136.04 2067.8Z" fill="#214FCF"/>
<path d="M3393.71 2067.8L3393.71 2132.23L3458.13 2132.23L3458.13 2067.8C3458.13 2032.22 3429.29 2003.38 3393.71 2003.38L3329.3 2003.38L3329.3 2067.8L3393.71 2067.8Z" fill="#214FCF"/>
<path d="M3393.71 1525.57L3393.71 1461.15L3458.15 1461.15L3458.15 1396.72L3393.71 1396.72L3329.3 1396.72L3329.3 1525.57L3393.71 1525.57Z" fill="white"/>
<path d="M3393.71 1267.87L3393.71 1332.29L3458.13 1332.29L3458.13 1267.87C3458.13 1232.29 3429.29 1203.44 3393.71 1203.44L3329.3 1203.44L3329.3 1267.87L3393.71 1267.87Z" fill="#214FCF"/>
<path d="M3200.46 1525.57L3264.88 1525.57L3264.88 1461.15L3200.46 1461.15L3200.46 1396.72L3136.04 1396.72L3136.04 1461.15C3136.04 1496.73 3164.89 1525.57 3200.46 1525.57Z" fill="#214FCF"/>
<path d="M3393.7 0.00195594L3393.7 64.4272L3458.13 64.4272L3458.13 128.852L3393.7 128.852L3329.28 128.852L3329.28 0.00195312L3393.7 0.00195594Z" fill="white"/>
<path d="M3393.7 257.705L3393.7 193.279L3458.11 193.279L3458.11 257.705C3458.11 293.285 3429.27 322.13 3393.7 322.13L3329.28 322.13L3329.28 257.705L3393.7 257.705Z" fill="#214FCF"/>
<path d="M3200.45 0.00195594L3264.86 0.00195876L3264.86 64.4272L3200.45 64.4272L3200.45 128.852L3136.03 128.852L3136.03 64.4272C3136.03 28.847 3164.87 0.00195439 3200.45 0.00195594Z" fill="#214FCF"/>
<path d="M2414.7 1203.45L2414.7 1267.87L2350.26 1267.87L2350.26 1332.3L2414.7 1332.3L2479.11 1332.3L2479.11 1203.45L2414.7 1203.45Z" fill="white"/>
<path d="M2672.37 1461.15L2672.37 1396.72L2607.95 1396.72L2607.95 1461.15L2543.53 1461.15L2543.53 1525.57L2607.95 1525.57C2643.52 1525.57 2672.37 1496.73 2672.37 1461.15Z" fill="#214FCF"/>
<path d="M2607.95 1203.45L2543.53 1203.45L2543.53 1267.87L2607.95 1267.87L2607.95 1332.3L2672.37 1332.3L2672.37 1267.87C2672.37 1232.29 2643.52 1203.45 2607.95 1203.45Z" fill="#214FCF"/>
<path d="M2414.68 322.129L2414.68 257.704L2350.25 257.704L2350.25 193.278L2414.68 193.278L2479.1 193.278L2479.1 322.129L2414.68 322.129Z" fill="white"/>
<path d="M2672.35 64.4263L2672.35 128.852L2607.94 128.852L2607.94 64.4263L2543.52 64.4264L2543.52 0.00115004L2607.94 0.00114722C2643.51 0.00114567 2672.35 28.8462 2672.35 64.4263Z" fill="#214FCF"/>
<path d="M1957.37 1667.86H2021.79V1603.42H2086.22V1667.86V1732.28H1957.37V1667.86Z" fill="white"/>
<path d="M2215.07 1925.53H2150.64V1861.11H2215.07V1796.69H2279.49V1861.11C2279.49 1896.68 2250.65 1925.53 2215.07 1925.53Z" fill="#214FCF"/>
<path d="M2215.07 1667.86H2150.64V1603.44H2215.07C2250.65 1603.44 2279.49 1632.28 2279.49 1667.86V1732.28H2215.07V1667.86Z" fill="#214FCF"/>
<path d="M2743.13 657.65H2807.55V722.085H2871.98V657.65V593.234H2743.13V657.65Z" fill="white"/>
<path d="M3000.83 657.65H2936.41V722.066H3000.83C3036.41 722.066 3065.26 693.225 3065.26 657.65V593.234H3000.83V657.65Z" fill="#214FCF"/>
<path d="M2743.13 464.4V528.816H2807.55V464.4H2871.98V399.984H2807.55C2771.97 399.984 2743.13 428.825 2743.13 464.4Z" fill="#214FCF"/>
<path d="M3065.27 1861.09L3000.84 1861.09L3000.84 1925.53L2936.42 1925.53L2936.42 1861.09L2936.42 1796.68L3065.27 1796.68L3065.27 1861.09Z" fill="white"/>
<path d="M2807.57 1861.09L2871.99 1861.09L2871.99 1925.51L2807.57 1925.51C2771.98 1925.51 2743.14 1896.67 2743.14 1861.09L2743.14 1796.68L2807.57 1796.68L2807.57 1861.09Z" fill="#214FCF"/>
<path d="M3065.27 1667.84L3065.27 1732.26L3000.84 1732.26L3000.84 1667.84L2936.42 1667.84L2936.42 1603.43L3000.84 1603.43C3036.42 1603.43 3065.27 1632.27 3065.27 1667.84Z" fill="#214FCF"/>
<path d="M3458.16 1667.86L3393.73 1667.86L3393.73 1603.42L3329.31 1603.42L3329.31 1667.86L3329.31 1732.28L3458.16 1732.28L3458.16 1667.86Z" fill="white"/>
<path d="M3200.45 1667.86L3264.88 1667.86L3264.88 1603.44L3200.45 1603.44C3164.87 1603.44 3136.03 1632.28 3136.03 1667.86L3136.03 1732.28L3200.45 1732.28L3200.45 1667.86Z" fill="#214FCF"/>
<path d="M3458.16 1861.11L3458.16 1796.69L3393.73 1796.69L3393.73 1861.11L3329.31 1861.11L3329.31 1925.53L3393.73 1925.53C3429.31 1925.53 3458.16 1896.68 3458.16 1861.11Z" fill="#214FCF"/>
<path d="M3851.03 5256.95H3786.61V5192.52H3722.18V5256.95V5321.37H3851.03V5256.95Z" fill="white"/>
<path d="M3593.33 5256.95H3657.75V5192.54H3593.33C3557.75 5192.54 3528.9 5221.38 3528.9 5256.95V5321.37H3593.33V5256.95Z" fill="#214FCF"/>
<path d="M3851.03 5450.2V5385.79H3786.61V5450.2H3722.18V5514.62H3786.61C3822.19 5514.62 3851.03 5485.78 3851.03 5450.2Z" fill="#214FCF"/>
<path d="M3065.27 4246.74H3000.84V4311.18H2936.42V4246.74V4182.33H3065.27V4246.74Z" fill="white"/>
<path d="M2807.56 3989.08H2871.99V4053.49H2807.56V4117.91H2743.14V4053.49C2743.14 4017.92 2771.98 3989.08 2807.56 3989.08Z" fill="#214FCF"/>
<path d="M2743.13 5450.19L2807.55 5450.19L2807.55 5514.62L2871.98 5514.62L2871.98 5450.19L2871.98 5385.77L2743.13 5385.77L2743.13 5450.19Z" fill="white"/>
<path d="M3000.83 5450.19L2936.41 5450.19L2936.41 5514.6L3000.83 5514.6C3036.41 5514.6 3065.26 5485.76 3065.26 5450.19L3065.26 5385.77L3000.83 5385.77L3000.83 5450.19Z" fill="#214FCF"/>
<path d="M2743.13 5256.94L2743.13 5321.35L2807.55 5321.35L2807.55 5256.94L2871.98 5256.94L2871.98 5192.52L2807.55 5192.52C2771.97 5192.52 2743.13 5221.36 2743.13 5256.94Z" fill="#214FCF"/>
<path d="M1957.37 4053.51L2021.79 4053.51L2021.79 3989.07L2086.22 3989.07L2086.22 4053.51L2086.22 4117.92L1957.37 4117.92L1957.37 4053.51Z" fill="white"/>
<path d="M1957.37 4246.76L1957.37 4182.34L2021.79 4182.34L2021.79 4246.76L2086.22 4246.76L2086.22 4311.17L2021.79 4311.17C1986.21 4311.17 1957.37 4282.33 1957.37 4246.76Z" fill="#214FCF"/>
<path d="M3786.59 5114.66L3786.59 5050.24L3851.02 5050.24L3851.02 4985.81L3786.59 4985.81L3722.17 4985.81L3722.17 5114.66L3786.59 5114.66Z" fill="white"/>
<path d="M3528.92 4856.96L3528.92 4921.38L3593.34 4921.38L3593.34 4856.96L3657.75 4856.96L3657.75 4792.53L3593.34 4792.53C3557.76 4792.53 3528.92 4821.38 3528.92 4856.96Z" fill="#214FCF"/>
<path d="M3786.59 4856.96L3786.59 4921.38L3851 4921.38L3851 4856.96C3851 4821.38 3822.16 4792.53 3786.59 4792.53L3722.17 4792.53L3722.17 4856.96L3786.59 4856.96Z" fill="#214FCF"/>
<path d="M3393.7 4792.54L3393.7 4856.96L3458.13 4856.96L3458.13 4921.39L3393.7 4921.39L3329.28 4921.39L3329.28 4792.54L3393.7 4792.54Z" fill="white"/>
<path d="M3136.03 5050.24L3136.03 4985.82L3200.45 4985.82L3200.45 5050.24L3264.86 5050.24L3264.86 5114.67L3200.45 5114.67C3164.87 5114.67 3136.03 5085.82 3136.03 5050.24Z" fill="#214FCF"/>
<path d="M2414.7 3589.09L2414.7 3653.52L2350.26 3653.52L2350.26 3717.94L2414.7 3717.94L2479.11 3717.94L2479.11 3589.09L2414.7 3589.09Z" fill="white"/>
<path d="M2672.36 3846.8L2672.36 3782.37L2607.95 3782.37L2607.95 3846.8L2543.53 3846.8L2543.53 3911.22L2607.95 3911.22C2643.52 3911.22 2672.36 3882.38 2672.36 3846.8Z" fill="#214FCF"/>
<path d="M2414.7 3846.8L2414.7 3782.37L2350.28 3782.37L2350.28 3846.8C2350.28 3882.38 2379.12 3911.22 2414.7 3911.22L2479.11 3911.22L2479.11 3846.8L2414.7 3846.8Z" fill="#214FCF"/>
<path d="M2414.68 5114.66L2414.68 5050.24L2350.25 5050.24L2350.25 4985.81L2414.68 4985.81L2479.1 4985.81L2479.1 5114.66L2414.68 5114.66Z" fill="white"/>
<path d="M2672.35 4856.96L2672.35 4921.38L2607.93 4921.38L2607.93 4856.96L2543.52 4856.96L2543.52 4792.53L2607.93 4792.53C2643.51 4792.53 2672.35 4821.38 2672.35 4856.96Z" fill="#214FCF"/>
<path d="M2414.68 4856.96L2414.68 4921.38L2350.27 4921.38L2350.27 4856.96C2350.27 4821.38 2379.11 4792.53 2414.68 4792.53L2479.1 4792.53L2479.1 4856.96L2414.68 4856.96Z" fill="#214FCF"/>
<path d="M2414.68 4314.73L2414.68 4250.3L2350.25 4250.3L2350.25 4185.88L2414.68 4185.88L2479.1 4185.88L2479.1 4314.73L2414.68 4314.73Z" fill="white"/>
<path d="M2414.68 4057.02L2414.68 4121.45L2350.27 4121.45L2350.27 4057.02C2350.27 4021.44 2379.11 3992.6 2414.68 3992.6L2479.1 3992.6L2479.1 4057.02L2414.68 4057.02Z" fill="#214FCF"/>
<path d="M2607.93 4314.73L2543.52 4314.73L2543.52 4250.3L2607.93 4250.3L2607.93 4185.88L2672.35 4185.88L2672.35 4250.3C2672.35 4285.88 2643.51 4314.73 2607.93 4314.73Z" fill="#214FCF"/>
<path d="M2414.7 2789.16L2414.7 2853.58L2350.26 2853.58L2350.26 2918.01L2414.7 2918.01L2479.11 2918.01L2479.11 2789.16L2414.7 2789.16Z" fill="white"/>
<path d="M2414.7 3046.86L2414.7 2982.44L2350.28 2982.44L2350.28 3046.86C2350.28 3082.44 2379.12 3111.29 2414.7 3111.29L2479.11 3111.29L2479.11 3046.86L2414.7 3046.86Z" fill="#214FCF"/>
<path d="M2607.95 2789.16L2543.53 2789.16L2543.53 2853.58L2607.95 2853.58L2607.95 2918.01L2672.37 2918.01L2672.37 2853.58C2672.37 2818 2643.52 2789.16 2607.95 2789.16Z" fill="#214FCF"/>
<path d="M3393.7 3992.6L3393.7 4057.03L3458.13 4057.03L3458.13 4121.45L3393.7 4121.45L3329.28 4121.45L3329.28 3992.6L3393.7 3992.6Z" fill="white"/>
<path d="M3136.03 4250.3L3136.03 4185.88L3200.45 4185.88L3200.45 4250.3L3264.86 4250.3L3264.86 4314.73L3200.45 4314.73C3164.87 4314.73 3136.03 4285.88 3136.03 4250.3Z" fill="#214FCF"/>
<path d="M3200.45 3992.6L3264.86 3992.6L3264.86 4057.03L3200.45 4057.03L3200.45 4121.45L3136.03 4121.45L3136.03 4057.03C3136.03 4021.45 3164.87 3992.6 3200.45 3992.6Z" fill="#214FCF"/>
<path d="M3393.71 3111.28L3393.71 3046.86L3458.15 3046.86L3458.15 2982.43L3393.71 2982.43L3329.29 2982.43L3329.29 3111.28L3393.71 3111.28Z" fill="white"/>
<path d="M3136.04 2853.58L3136.04 2918.01L3200.46 2918.01L3200.46 2853.58L3264.88 2853.58L3264.88 2789.16L3200.46 2789.16C3164.89 2789.16 3136.04 2818 3136.04 2853.58Z" fill="#214FCF"/>
<path d="M3851.03 4457.02H3786.61V4392.58H3722.18V4457.02V4521.43H3851.03V4457.02Z" fill="white"/>
<path d="M3593.33 4714.68H3657.75V4650.27H3593.33V4585.85H3528.9V4650.27C3528.9 4685.84 3557.75 4714.68 3593.33 4714.68Z" fill="#214FCF"/>
<path d="M3593.33 4457.02H3657.75V4392.6H3593.33C3557.75 4392.6 3528.9 4421.44 3528.9 4457.02V4521.43H3593.33V4457.02Z" fill="#214FCF"/>
<path d="M3065.27 3446.81H3000.84V3511.24H2936.42V3446.81V3382.39H3065.27V3446.81Z" fill="white"/>
<path d="M2807.56 3446.81H2871.99V3511.22H2807.56C2771.98 3511.22 2743.14 3482.38 2743.14 3446.81V3382.39H2807.56V3446.81Z" fill="#214FCF"/>
<path d="M3065.27 3253.56V3317.97H3000.84V3253.56H2936.42V3189.14H3000.84C3036.42 3189.14 3065.27 3217.98 3065.27 3253.56Z" fill="#214FCF"/>
<path d="M2743.13 4650.25L2807.55 4650.25L2807.55 4714.68L2871.98 4714.68L2871.98 4650.25L2871.98 4585.83L2743.13 4585.83L2743.13 4650.25Z" fill="white"/>
<path d="M3000.83 4650.25L2936.41 4650.25L2936.41 4714.67L3000.83 4714.67C3036.41 4714.67 3065.26 4685.82 3065.26 4650.25L3065.26 4585.83L3000.83 4585.83L3000.83 4650.25Z" fill="#214FCF"/>
<path d="M2743.13 4457L2743.13 4521.42L2807.55 4521.42L2807.55 4457L2871.98 4457L2871.98 4392.58L2807.55 4392.58C2771.97 4392.58 2743.13 4421.42 2743.13 4457Z" fill="#214FCF"/>
<path d="M2350.24 4457.02L2414.67 4457.02L2414.67 4392.58L2479.09 4392.58L2479.09 4457.02L2479.09 4521.43L2350.24 4521.43L2350.24 4457.02Z" fill="white"/>
<path d="M2607.94 4457.02L2543.52 4457.02L2543.52 4392.6L2607.94 4392.6C2643.52 4392.6 2672.37 4421.44 2672.37 4457.02L2672.37 4521.43L2607.94 4521.43L2607.94 4457.02Z" fill="#214FCF"/>
<path d="M2350.24 4650.27L2350.24 4585.85L2414.67 4585.85L2414.67 4650.27L2479.09 4650.27L2479.09 4714.68L2414.67 4714.68C2379.09 4714.68 2350.24 4685.84 2350.24 4650.27Z" fill="#214FCF"/>
<path d="M1893.67 3046.83H1829.24V3111.26H1764.82V3046.83V2982.41H1893.67V3046.83Z" fill="white"/>
<path d="M1635.96 3046.83H1700.39V3111.24H1635.96C1600.38 3111.24 1571.54 3082.4 1571.54 3046.83V2982.41H1635.96V3046.83Z" fill="#214FCF"/>
<path d="M1893.67 2853.58V2917.99H1829.24V2853.58H1764.82V2789.16H1829.24C1864.82 2789.16 1893.67 2818 1893.67 2853.58Z" fill="#214FCF"/>
<path d="M1107.9 4057.04H1043.48V3992.6H979.052V4057.04V4121.45H1107.9V4057.04Z" fill="white"/>
<path d="M850.199 4314.7H914.625V4250.29H850.199V4185.87H785.774V4250.29C785.774 4285.86 814.619 4314.7 850.199 4314.7Z" fill="#214FCF"/>
<path d="M785.763 2853.59L850.188 2853.59L850.188 2789.16L914.613 2789.16L914.613 2853.59L914.613 2918.01L785.763 2918.01L785.763 2853.59Z" fill="white"/>
<path d="M1043.47 2853.59L979.041 2853.59L979.041 2789.18L1043.47 2789.18C1079.05 2789.18 1107.89 2818.02 1107.89 2853.59L1107.89 2918.01L1043.47 2918.01L1043.47 2853.59Z" fill="#214FCF"/>
<path d="M785.763 3046.84L785.763 2982.43L850.188 2982.43L850.188 3046.84L914.613 3046.84L914.613 3111.26L850.188 3111.26C814.608 3111.26 785.763 3082.42 785.763 3046.84Z" fill="#214FCF"/>
<path d="M0.000249772 4250.27L64.4255 4250.27L64.4255 4314.71L128.851 4314.71L128.851 4250.27L128.851 4185.86L0.000244141 4185.86L0.000249772 4250.27Z" fill="white"/>
<path d="M0.000249772 4057.02L0.000255403 4121.44L64.4255 4121.44L64.4255 4057.02L128.851 4057.02L128.851 3992.61L64.4255 3992.61C28.8453 3992.61 0.000246662 4021.45 0.000249772 4057.02Z" fill="#214FCF"/>
<path d="M1829.22 3189.12L1829.22 3253.54L1893.66 3253.54L1893.66 3317.97L1829.22 3317.97L1764.81 3317.97L1764.81 3189.12L1829.22 3189.12Z" fill="white"/>
<path d="M1571.55 3446.82L1571.55 3382.39L1635.97 3382.39L1635.97 3446.82L1700.39 3446.82L1700.39 3511.24L1635.97 3511.24C1600.4 3511.24 1571.55 3482.4 1571.55 3446.82Z" fill="#214FCF"/>
<path d="M1829.22 3446.82L1829.22 3382.39L1893.64 3382.39L1893.64 3446.82C1893.64 3482.4 1864.8 3511.24 1829.22 3511.24L1764.81 3511.24L1764.81 3446.82L1829.22 3446.82Z" fill="#214FCF"/>
<path d="M1436.33 3511.24L1436.33 3446.82L1500.77 3446.82L1500.77 3382.39L1436.33 3382.39L1371.92 3382.39L1371.92 3511.24L1436.33 3511.24Z" fill="white"/>
<path d="M1178.67 3253.54L1178.67 3317.96L1243.08 3317.96L1243.08 3253.54L1307.5 3253.54L1307.5 3189.11L1243.08 3189.11C1207.51 3189.11 1178.67 3217.96 1178.67 3253.54Z" fill="#214FCF"/>
<path d="M457.334 4714.68L457.334 4650.26L392.899 4650.26L392.899 4585.83L457.334 4585.83L521.75 4585.83L521.75 4714.68L457.334 4714.68Z" fill="white"/>
<path d="M715 4456.98L715 4521.41L650.584 4521.41L650.584 4456.98L586.169 4456.98L586.169 4392.56L650.584 4392.56C686.159 4392.56 715 4421.4 715 4456.98Z" fill="#214FCF"/>
<path d="M457.334 4456.98L457.334 4521.41L392.918 4521.41L392.918 4456.98C392.918 4421.4 421.759 4392.56 457.334 4392.56L521.75 4392.56L521.75 4456.98L457.334 4456.98Z" fill="#214FCF"/>
<path d="M457.32 3189.12L457.32 3253.54L392.884 3253.54L392.884 3317.97L457.32 3317.97L521.735 3317.97L521.735 3189.12L457.32 3189.12Z" fill="white"/>
<path d="M714.986 3446.82L714.986 3382.39L650.57 3382.39L650.57 3446.82L586.154 3446.82L586.154 3511.24L650.57 3511.24C686.145 3511.24 714.986 3482.4 714.986 3446.82Z" fill="#214FCF"/>
<path d="M457.32 3446.82L457.32 3382.39L392.904 3382.39L392.904 3446.82C392.904 3482.4 421.745 3511.24 457.32 3511.24L521.735 3511.24L521.735 3446.82L457.32 3446.82Z" fill="#214FCF"/>
<path d="M457.32 3989.05L457.32 4053.48L392.884 4053.48L392.884 4117.9L457.32 4117.9L521.735 4117.9L521.735 3989.05L457.32 3989.05Z" fill="white"/>
<path d="M457.32 4246.75L457.32 4182.33L392.904 4182.33L392.904 4246.75C392.904 4282.33 421.745 4311.18 457.32 4311.18L521.735 4311.18L521.735 4246.75L457.32 4246.75Z" fill="#214FCF"/>
<path d="M650.57 3989.05L586.154 3989.05L586.154 4053.48L650.57 4053.48L650.57 4117.9L714.986 4117.9L714.986 4053.48C714.986 4017.9 686.145 3989.05 650.57 3989.05Z" fill="#214FCF"/>
<path d="M457.334 5514.62L457.334 5450.19L392.899 5450.19L392.899 5385.77L457.334 5385.77L521.75 5385.77L521.75 5514.62L457.334 5514.62Z" fill="white"/>
<path d="M457.334 5256.92L457.334 5321.34L392.918 5321.34L392.918 5256.92C392.918 5221.34 421.759 5192.49 457.334 5192.49L521.75 5192.49L521.75 5256.92L457.334 5256.92Z" fill="#214FCF"/>
<path d="M650.584 5514.62L586.169 5514.62L586.169 5450.19L650.584 5450.19L650.584 5385.77L715 5385.77L715 5450.19C715 5485.77 686.159 5514.62 650.584 5514.62Z" fill="#214FCF"/>
<path d="M1436.33 4311.18L1436.33 4246.75L1500.77 4246.75L1500.77 4182.33L1436.33 4182.33L1371.92 4182.33L1371.92 4311.18L1436.33 4311.18Z" fill="white"/>
<path d="M1178.67 4053.48L1178.67 4117.9L1243.08 4117.9L1243.08 4053.48L1307.5 4053.48L1307.5 3989.05L1243.08 3989.05C1207.51 3989.05 1178.67 4017.9 1178.67 4053.48Z" fill="#214FCF"/>
<path d="M1243.08 4311.18L1307.5 4311.18L1307.5 4246.75L1243.08 4246.75L1243.08 4182.33L1178.67 4182.33L1178.67 4246.75C1178.67 4282.33 1207.51 4311.18 1243.08 4311.18Z" fill="#214FCF"/>
<path d="M1436.35 5192.49L1436.35 5256.92L1500.78 5256.92L1500.78 5321.34L1436.35 5321.34L1371.93 5321.34L1371.93 5192.49L1436.35 5192.49Z" fill="white"/>
<path d="M1178.68 5450.2L1178.68 5385.77L1243.1 5385.77L1243.1 5450.2L1307.51 5450.2L1307.51 5514.62L1243.1 5514.62C1207.52 5514.62 1178.68 5485.78 1178.68 5450.2Z" fill="#214FCF"/>
<path d="M1893.67 3846.76H1829.24V3911.2H1764.82V3846.76V3782.35H1893.67V3846.76Z" fill="white"/>
<path d="M1635.96 3589.1H1700.39V3653.51H1635.96V3717.93H1571.54V3653.51C1571.54 3617.94 1600.38 3589.1 1635.96 3589.1Z" fill="#214FCF"/>
<path d="M1635.96 3846.76H1700.39V3911.18H1635.96C1600.38 3911.18 1571.54 3882.34 1571.54 3846.76V3782.35H1635.96V3846.76Z" fill="#214FCF"/>
<path d="M1107.9 4856.97H1043.48V4792.54H979.052V4856.97V4921.39H1107.9V4856.97Z" fill="white"/>
<path d="M850.199 4856.97H914.625V4792.56H850.199C814.619 4792.56 785.774 4821.4 785.774 4856.97V4921.39H850.199V4856.97Z" fill="#214FCF"/>
<path d="M1107.9 5050.22V4985.81H1043.48V5050.22H979.052V5114.64H1043.48C1079.06 5114.64 1107.9 5085.8 1107.9 5050.22Z" fill="#214FCF"/>
<path d="M785.763 3653.53L850.188 3653.53L850.188 3589.09L914.613 3589.09L914.613 3653.53L914.613 3717.94L785.763 3717.94L785.763 3653.53Z" fill="white"/>
<path d="M1043.47 3653.53L979.041 3653.53L979.041 3589.11L1043.47 3589.11C1079.05 3589.11 1107.89 3617.95 1107.89 3653.53L1107.89 3717.94L1043.47 3717.94L1043.47 3653.53Z" fill="#214FCF"/>
<path d="M785.763 3846.78L785.763 3782.36L850.188 3782.36L850.188 3846.78L914.613 3846.78L914.613 3911.19L850.188 3911.19C814.608 3911.19 785.763 3882.35 785.763 3846.78Z" fill="#214FCF"/>
<path d="M392.874 3846.76L457.299 3846.76L457.299 3911.2L521.724 3911.2L521.724 3846.76L521.724 3782.35L392.874 3782.35L392.874 3846.76Z" fill="white"/>
<path d="M650.577 3846.76L586.152 3846.76L586.152 3911.18L650.577 3911.18C686.157 3911.18 715.002 3882.34 715.002 3846.76L715.002 3782.35L650.577 3782.35L650.577 3846.76Z" fill="#214FCF"/>
<path d="M392.874 3653.51L392.874 3717.93L457.299 3717.93L457.299 3653.51L521.724 3653.51L521.724 3589.1L457.299 3589.1C421.719 3589.1 392.874 3617.94 392.874 3653.51Z" fill="#214FCF"/>
<path d="M7765.76 5256.95H7701.34V5192.52H7636.91V5256.95V5321.37H7765.76V5256.95Z" fill="white"/>
<path d="M7508.06 5256.95H7572.48V5192.54H7508.06C7472.48 5192.54 7443.63 5221.38 7443.63 5256.95V5321.37H7508.06V5256.95Z" fill="#214FCF"/>
<path d="M7765.76 5450.2V5385.79H7701.34V5450.2H7636.91V5514.62H7701.34C7736.92 5514.62 7765.76 5485.78 7765.76 5450.2Z" fill="#214FCF"/>
<path d="M6980 4246.74H6915.57V4311.18H6851.15V4246.74V4182.33H6980V4246.74Z" fill="white"/>
<path d="M6722.3 3989.08H6786.72V4053.49H6722.3V4117.91H6657.87V4053.49C6657.87 4017.92 6686.72 3989.08 6722.3 3989.08Z" fill="#214FCF"/>
<path d="M6657.86 5450.19L6722.28 5450.19L6722.28 5514.62L6786.71 5514.62L6786.71 5450.19L6786.71 5385.77L6657.86 5385.77L6657.86 5450.19Z" fill="white"/>
<path d="M6915.56 5450.19L6851.14 5450.19L6851.14 5514.6L6915.56 5514.6C6951.14 5514.6 6979.99 5485.76 6979.99 5450.19L6979.99 5385.77L6915.56 5385.77L6915.56 5450.19Z" fill="#214FCF"/>
<path d="M6657.86 5256.94L6657.86 5321.35L6722.28 5321.35L6722.28 5256.94L6786.71 5256.94L6786.71 5192.52L6722.28 5192.52C6686.7 5192.52 6657.86 5221.36 6657.86 5256.94Z" fill="#214FCF"/>
<path d="M5872.09 4053.51L5936.52 4053.51L5936.52 3989.07L6000.95 3989.07L6000.95 4053.51L6000.95 4117.92L5872.09 4117.92L5872.09 4053.51Z" fill="white"/>
<path d="M5872.09 4246.76L5872.09 4182.34L5936.52 4182.34L5936.52 4246.76L6000.95 4246.76L6000.95 4311.17L5936.52 4311.17C5900.94 4311.17 5872.09 4282.33 5872.09 4246.76Z" fill="#214FCF"/>
<path d="M7701.32 5114.66L7701.32 5050.24L7765.75 5050.24L7765.75 4985.81L7701.32 4985.81L7636.9 4985.81L7636.9 5114.66L7701.32 5114.66Z" fill="white"/>
<path d="M7443.65 4856.96L7443.65 4921.38L7508.07 4921.38L7508.07 4856.96L7572.48 4856.96L7572.48 4792.53L7508.07 4792.53C7472.49 4792.53 7443.65 4821.38 7443.65 4856.96Z" fill="#214FCF"/>
<path d="M7701.32 4856.96L7701.32 4921.38L7765.73 4921.38L7765.73 4856.96C7765.73 4821.38 7736.89 4792.53 7701.32 4792.53L7636.9 4792.53L7636.9 4856.96L7701.32 4856.96Z" fill="#214FCF"/>
<path d="M7308.43 4792.54L7308.43 4856.96L7372.86 4856.96L7372.86 4921.39L7308.43 4921.39L7244.01 4921.39L7244.01 4792.54L7308.43 4792.54Z" fill="white"/>
<path d="M7050.76 5050.24L7050.76 4985.82L7115.18 4985.82L7115.18 5050.24L7179.59 5050.24L7179.59 5114.67L7115.18 5114.67C7079.6 5114.67 7050.76 5085.82 7050.76 5050.24Z" fill="#214FCF"/>
<path d="M6329.43 3589.09L6329.43 3653.52L6264.99 3653.52L6264.99 3717.94L6329.43 3717.94L6393.85 3717.94L6393.85 3589.09L6329.43 3589.09Z" fill="white"/>
<path d="M6587.1 3846.8L6587.1 3782.37L6522.68 3782.37L6522.68 3846.8L6458.27 3846.8L6458.27 3911.22L6522.68 3911.22C6558.26 3911.22 6587.1 3882.38 6587.1 3846.8Z" fill="#214FCF"/>
<path d="M6329.43 3846.8L6329.43 3782.37L6265.01 3782.37L6265.01 3846.8C6265.01 3882.38 6293.86 3911.22 6329.43 3911.22L6393.85 3911.22L6393.85 3846.8L6329.43 3846.8Z" fill="#214FCF"/>
<path d="M6329.41 5114.66L6329.41 5050.24L6264.98 5050.24L6264.98 4985.81L6329.41 4985.81L6393.83 4985.81L6393.83 5114.66L6329.41 5114.66Z" fill="white"/>
<path d="M6587.08 4856.96L6587.08 4921.38L6522.66 4921.38L6522.66 4856.96L6458.25 4856.96L6458.25 4792.53L6522.66 4792.53C6558.24 4792.53 6587.08 4821.38 6587.08 4856.96Z" fill="#214FCF"/>
<path d="M6329.41 4856.96L6329.41 4921.38L6265 4921.38L6265 4856.96C6265 4821.38 6293.84 4792.53 6329.41 4792.53L6393.83 4792.53L6393.83 4856.96L6329.41 4856.96Z" fill="#214FCF"/>
<path d="M6329.41 4314.73L6329.41 4250.3L6264.98 4250.3L6264.98 4185.88L6329.41 4185.88L6393.83 4185.88L6393.83 4314.73L6329.41 4314.73Z" fill="white"/>
<path d="M6329.41 4057.02L6329.41 4121.45L6265 4121.45L6265 4057.02C6265 4021.44 6293.84 3992.6 6329.41 3992.6L6393.83 3992.6L6393.83 4057.02L6329.41 4057.02Z" fill="#214FCF"/>
<path d="M6522.66 4314.73L6458.25 4314.73L6458.25 4250.3L6522.66 4250.3L6522.66 4185.88L6587.08 4185.88L6587.08 4250.3C6587.08 4285.88 6558.24 4314.73 6522.66 4314.73Z" fill="#214FCF"/>
<path d="M6329.43 2789.16L6329.43 2853.58L6264.99 2853.58L6264.99 2918.01L6329.43 2918.01L6393.85 2918.01L6393.85 2789.16L6329.43 2789.16Z" fill="white"/>
<path d="M6329.43 3046.86L6329.43 2982.44L6265.01 2982.44L6265.01 3046.86C6265.01 3082.44 6293.86 3111.29 6329.43 3111.29L6393.85 3111.29L6393.85 3046.86L6329.43 3046.86Z" fill="#214FCF"/>
<path d="M6522.68 2789.16L6458.27 2789.16L6458.27 2853.58L6522.68 2853.58L6522.68 2918.01L6587.1 2918.01L6587.1 2853.58C6587.1 2818 6558.26 2789.16 6522.68 2789.16Z" fill="#214FCF"/>
<path d="M7308.43 3992.6L7308.43 4057.03L7372.86 4057.03L7372.86 4121.45L7308.43 4121.45L7244.01 4121.45L7244.01 3992.6L7308.43 3992.6Z" fill="white"/>
<path d="M7050.76 4250.3L7050.76 4185.88L7115.18 4185.88L7115.18 4250.3L7179.59 4250.3L7179.59 4314.73L7115.18 4314.73C7079.6 4314.73 7050.76 4285.88 7050.76 4250.3Z" fill="#214FCF"/>
<path d="M7115.18 3992.6L7179.59 3992.6L7179.59 4057.03L7115.18 4057.03L7115.18 4121.45L7050.76 4121.45L7050.76 4057.03C7050.76 4021.45 7079.6 3992.6 7115.18 3992.6Z" fill="#214FCF"/>
<path d="M7308.44 3111.28L7308.44 3046.86L7372.88 3046.86L7372.88 2982.43L7308.44 2982.43L7244.03 2982.43L7244.03 3111.28L7308.44 3111.28Z" fill="white"/>
<path d="M7050.78 2853.58L7050.78 2918.01L7115.19 2918.01L7115.19 2853.58L7179.61 2853.58L7179.61 2789.16L7115.19 2789.16C7079.62 2789.16 7050.78 2818 7050.78 2853.58Z" fill="#214FCF"/>
<path d="M7765.76 4457.02H7701.34V4392.58H7636.91V4457.02V4521.43H7765.76V4457.02Z" fill="white"/>
<path d="M7508.06 4714.68H7572.48V4650.27H7508.06V4585.85H7443.63V4650.27C7443.63 4685.84 7472.48 4714.68 7508.06 4714.68Z" fill="#214FCF"/>
<path d="M7508.06 4457.02H7572.48V4392.6H7508.06C7472.48 4392.6 7443.63 4421.44 7443.63 4457.02V4521.43H7508.06V4457.02Z" fill="#214FCF"/>
<path d="M6980 3446.81H6915.57V3511.24H6851.15V3446.81V3382.39H6980V3446.81Z" fill="white"/>
<path d="M6722.3 3446.81H6786.72V3511.22H6722.3C6686.72 3511.22 6657.87 3482.38 6657.87 3446.81V3382.39H6722.3V3446.81Z" fill="#214FCF"/>
<path d="M6980 3253.56V3317.97H6915.57V3253.56H6851.15V3189.14H6915.57C6951.15 3189.14 6980 3217.98 6980 3253.56Z" fill="#214FCF"/>
<path d="M6657.86 4650.25L6722.28 4650.25L6722.28 4714.68L6786.71 4714.68L6786.71 4650.25L6786.71 4585.83L6657.86 4585.83L6657.86 4650.25Z" fill="white"/>
<path d="M6915.56 4650.25L6851.14 4650.25L6851.14 4714.67L6915.56 4714.67C6951.14 4714.67 6979.99 4685.82 6979.99 4650.25L6979.99 4585.83L6915.56 4585.83L6915.56 4650.25Z" fill="#214FCF"/>
<path d="M6657.86 4457L6657.86 4521.42L6722.28 4521.42L6722.28 4457L6786.71 4457L6786.71 4392.58L6722.28 4392.58C6686.7 4392.58 6657.86 4421.42 6657.86 4457Z" fill="#214FCF"/>
<path d="M6264.97 4457.02L6329.4 4457.02L6329.4 4392.58L6393.82 4392.58L6393.82 4457.02L6393.82 4521.43L6264.97 4521.43L6264.97 4457.02Z" fill="white"/>
<path d="M6522.67 4457.02L6458.25 4457.02L6458.25 4392.6L6522.67 4392.6C6558.25 4392.6 6587.1 4421.44 6587.1 4457.02L6587.1 4521.43L6522.67 4521.43L6522.67 4457.02Z" fill="#214FCF"/>
<path d="M6264.97 4650.27L6264.97 4585.85L6329.4 4585.85L6329.4 4650.27L6393.82 4650.27L6393.82 4714.68L6329.4 4714.68C6293.82 4714.68 6264.97 4685.84 6264.97 4650.27Z" fill="#214FCF"/>
<path d="M5808.4 3046.83H5743.97V3111.26H5679.55V3046.83V2982.41H5808.4V3046.83Z" fill="white"/>
<path d="M5550.69 3046.83H5615.12V3111.24H5550.69C5515.11 3111.24 5486.27 3082.4 5486.27 3046.83V2982.41H5550.69V3046.83Z" fill="#214FCF"/>
<path d="M5808.4 2853.58V2917.99H5743.97V2853.58H5679.55V2789.16H5743.97C5779.55 2789.16 5808.4 2818 5808.4 2853.58Z" fill="#214FCF"/>
<path d="M5022.63 4057.04H4958.21V3992.6H4893.78V4057.04V4121.45H5022.63V4057.04Z" fill="white"/>
<path d="M4764.93 4314.7H4829.36V4250.29H4764.93V4185.87H4700.51V4250.29C4700.51 4285.86 4729.35 4314.7 4764.93 4314.7Z" fill="#214FCF"/>
<path d="M4700.5 2853.59L4764.92 2853.59L4764.92 2789.16L4829.35 2789.16L4829.35 2853.59L4829.35 2918.01L4700.5 2918.01L4700.5 2853.59Z" fill="white"/>
<path d="M4958.2 2853.59L4893.77 2853.59L4893.77 2789.18L4958.2 2789.18C4993.78 2789.18 5022.62 2818.02 5022.62 2853.59L5022.62 2918.01L4958.2 2918.01L4958.2 2853.59Z" fill="#214FCF"/>
<path d="M4700.5 3046.84L4700.5 2982.43L4764.92 2982.43L4764.92 3046.84L4829.35 3046.84L4829.35 3111.26L4764.92 3111.26C4729.34 3111.26 4700.5 3082.42 4700.5 3046.84Z" fill="#214FCF"/>
<path d="M3914.73 4250.27L3979.16 4250.27L3979.16 4314.71L4043.58 4314.71L4043.58 4250.27L4043.58 4185.86L3914.73 4185.86L3914.73 4250.27Z" fill="white"/>
<path d="M3914.73 4057.02L3914.73 4121.44L3979.16 4121.44L3979.16 4057.02L4043.58 4057.02L4043.58 3992.61L3979.16 3992.61C3943.58 3992.61 3914.73 4021.45 3914.73 4057.02Z" fill="#214FCF"/>
<path d="M5743.95 3189.12L5743.95 3253.54L5808.39 3253.54L5808.39 3317.97L5743.95 3317.97L5679.54 3317.97L5679.54 3189.12L5743.95 3189.12Z" fill="white"/>
<path d="M5486.29 3446.82L5486.29 3382.39L5550.7 3382.39L5550.7 3446.82L5615.12 3446.82L5615.12 3511.24L5550.7 3511.24C5515.13 3511.24 5486.29 3482.4 5486.29 3446.82Z" fill="#214FCF"/>
<path d="M5743.95 3446.82L5743.95 3382.39L5808.37 3382.39L5808.37 3446.82C5808.37 3482.4 5779.53 3511.24 5743.95 3511.24L5679.54 3511.24L5679.54 3446.82L5743.95 3446.82Z" fill="#214FCF"/>
<path d="M5351.07 3511.24L5351.07 3446.82L5415.5 3446.82L5415.5 3382.39L5351.07 3382.39L5286.65 3382.39L5286.65 3511.24L5351.07 3511.24Z" fill="white"/>
<path d="M5093.4 3253.54L5093.4 3317.96L5157.81 3317.96L5157.81 3253.54L5222.23 3253.54L5222.23 3189.11L5157.81 3189.11C5122.24 3189.11 5093.4 3217.96 5093.4 3253.54Z" fill="#214FCF"/>
<path d="M4372.06 4714.68L4372.06 4650.26L4307.63 4650.26L4307.63 4585.83L4372.06 4585.83L4436.48 4585.83L4436.48 4714.68L4372.06 4714.68Z" fill="white"/>
<path d="M4629.73 4456.98L4629.73 4521.41L4565.32 4521.41L4565.32 4456.98L4500.9 4456.98L4500.9 4392.56L4565.32 4392.56C4600.89 4392.56 4629.73 4421.4 4629.73 4456.98Z" fill="#214FCF"/>
<path d="M4372.06 4456.98L4372.06 4521.41L4307.65 4521.41L4307.65 4456.98C4307.65 4421.4 4336.49 4392.56 4372.06 4392.56L4436.48 4392.56L4436.48 4456.98L4372.06 4456.98Z" fill="#214FCF"/>
<path d="M4372.05 3189.12L4372.05 3253.54L4307.62 3253.54L4307.62 3317.97L4372.05 3317.97L4436.47 3317.97L4436.47 3189.12L4372.05 3189.12Z" fill="white"/>
<path d="M4629.72 3446.82L4629.72 3382.39L4565.3 3382.39L4565.3 3446.82L4500.89 3446.82L4500.89 3511.24L4565.3 3511.24C4600.88 3511.24 4629.72 3482.4 4629.72 3446.82Z" fill="#214FCF"/>
<path d="M4372.05 3446.82L4372.05 3382.39L4307.64 3382.39L4307.64 3446.82C4307.64 3482.4 4336.48 3511.24 4372.05 3511.24L4436.47 3511.24L4436.47 3446.82L4372.05 3446.82Z" fill="#214FCF"/>
<path d="M4372.05 3989.05L4372.05 4053.48L4307.62 4053.48L4307.62 4117.9L4372.05 4117.9L4436.47 4117.9L4436.47 3989.05L4372.05 3989.05Z" fill="white"/>
<path d="M4372.05 4246.75L4372.05 4182.33L4307.64 4182.33L4307.64 4246.75C4307.64 4282.33 4336.48 4311.18 4372.05 4311.18L4436.47 4311.18L4436.47 4246.75L4372.05 4246.75Z" fill="#214FCF"/>
<path d="M4565.3 3989.05L4500.89 3989.05L4500.89 4053.48L4565.3 4053.48L4565.3 4117.9L4629.72 4117.9L4629.72 4053.48C4629.72 4017.9 4600.88 3989.05 4565.3 3989.05Z" fill="#214FCF"/>
<path d="M4372.06 5514.62L4372.06 5450.2L4307.63 5450.2L4307.63 5385.77L4372.06 5385.77L4436.48 5385.77L4436.48 5514.62L4372.06 5514.62Z" fill="white"/>
<path d="M4372.06 5256.92L4372.06 5321.34L4307.65 5321.34L4307.65 5256.92C4307.65 5221.34 4336.49 5192.49 4372.06 5192.49L4436.48 5192.49L4436.48 5256.92L4372.06 5256.92Z" fill="#214FCF"/>
<path d="M4565.32 5514.62L4500.9 5514.62L4500.9 5450.2L4565.32 5450.2L4565.32 5385.77L4629.73 5385.77L4629.73 5450.2C4629.73 5485.78 4600.89 5514.62 4565.32 5514.62Z" fill="#214FCF"/>
<path d="M5351.07 4311.18L5351.07 4246.75L5415.5 4246.75L5415.5 4182.33L5351.07 4182.33L5286.65 4182.33L5286.65 4311.18L5351.07 4311.18Z" fill="white"/>
<path d="M5093.4 4053.48L5093.4 4117.9L5157.81 4117.9L5157.81 4053.48L5222.23 4053.48L5222.23 3989.05L5157.81 3989.05C5122.24 3989.05 5093.4 4017.9 5093.4 4053.48Z" fill="#214FCF"/>
<path d="M5157.81 4311.18L5222.23 4311.18L5222.23 4246.75L5157.81 4246.75L5157.81 4182.33L5093.4 4182.33L5093.4 4246.75C5093.4 4282.33 5122.24 4311.18 5157.81 4311.18Z" fill="#214FCF"/>
<path d="M5351.08 5192.49L5351.08 5256.92L5415.51 5256.92L5415.51 5321.34L5351.08 5321.34L5286.66 5321.34L5286.66 5192.49L5351.08 5192.49Z" fill="white"/>
<path d="M5093.41 5450.2L5093.41 5385.77L5157.83 5385.77L5157.83 5450.2L5222.24 5450.2L5222.24 5514.62L5157.83 5514.62C5122.25 5514.62 5093.41 5485.78 5093.41 5450.2Z" fill="#214FCF"/>
<path d="M5808.4 3846.76H5743.97V3911.2H5679.55V3846.76V3782.35H5808.4V3846.76Z" fill="white"/>
<path d="M5550.69 3589.1H5615.12V3653.51H5550.69V3717.93H5486.27V3653.51C5486.27 3617.94 5515.11 3589.1 5550.69 3589.1Z" fill="#214FCF"/>
<path d="M5550.69 3846.76H5615.12V3911.18H5550.69C5515.11 3911.18 5486.27 3882.34 5486.27 3846.76V3782.35H5550.69V3846.76Z" fill="#214FCF"/>
<path d="M5022.63 4856.97H4958.21V4792.54H4893.78V4856.97V4921.39H5022.63V4856.97Z" fill="white"/>
<path d="M4764.93 4856.97H4829.36V4792.56H4764.93C4729.35 4792.56 4700.51 4821.4 4700.51 4856.97V4921.39H4764.93V4856.97Z" fill="#214FCF"/>
<path d="M5022.63 5050.22V4985.81H4958.21V5050.22H4893.78V5114.64H4958.21C4993.79 5114.64 5022.63 5085.8 5022.63 5050.22Z" fill="#214FCF"/>
<path d="M4700.5 3653.53L4764.92 3653.53L4764.92 3589.09L4829.35 3589.09L4829.35 3653.53L4829.35 3717.94L4700.5 3717.94L4700.5 3653.53Z" fill="white"/>
<path d="M4958.2 3653.53L4893.77 3653.53L4893.77 3589.11L4958.2 3589.11C4993.78 3589.11 5022.62 3617.95 5022.62 3653.53L5022.62 3717.94L4958.2 3717.94L4958.2 3653.53Z" fill="#214FCF"/>
<path d="M4700.5 3846.78L4700.5 3782.36L4764.92 3782.36L4764.92 3846.78L4829.35 3846.78L4829.35 3911.19L4764.92 3911.19C4729.34 3911.19 4700.5 3882.35 4700.5 3846.78Z" fill="#214FCF"/>
<path d="M4307.61 3846.76L4372.03 3846.76L4372.03 3911.2L4436.46 3911.2L4436.46 3846.76L4436.46 3782.35L4307.61 3782.35L4307.61 3846.76Z" fill="white"/>
<path d="M4565.31 3846.76L4500.88 3846.76L4500.88 3911.18L4565.31 3911.18C4600.89 3911.18 4629.74 3882.34 4629.74 3846.76L4629.74 3782.35L4565.31 3782.35L4565.31 3846.76Z" fill="#214FCF"/>
<path d="M4307.61 3653.51L4307.61 3717.93L4372.03 3717.93L4372.03 3653.51L4436.46 3653.51L4436.46 3589.1L4372.03 3589.1C4336.45 3589.1 4307.61 3617.94 4307.61 3653.51Z" fill="#214FCF"/>
<path d="M3914.73 257.67H3979.16V322.105H4043.58V257.67V193.254H3914.73V257.67Z" fill="white"/>
<path d="M4172.43 257.67H4108.01V322.085H4172.43C4208.01 322.085 4236.86 293.244 4236.86 257.67V193.254H4172.43V257.67Z" fill="#214FCF"/>
<path d="M3914.73 64.4196V128.835H3979.16V64.4196H4043.58V0.00390625H3979.16C3943.58 0.00390625 3914.73 28.8447 3914.73 64.4196Z" fill="#214FCF"/>
<path d="M4700.49 1267.88H4764.92V1203.44H4829.34V1267.88V1332.29H4700.49V1267.88Z" fill="white"/>
<path d="M4958.2 1525.54H4893.77V1461.13H4958.2V1396.71H5022.62V1461.13C5022.62 1496.7 4993.78 1525.54 4958.2 1525.54Z" fill="#214FCF"/>
<path d="M5022.63 64.4359L4958.21 64.4359L4958.21 0.000558943L4893.78 0.000553311L4893.78 64.4359L4893.78 128.852L5022.63 128.852L5022.63 64.4359Z" fill="white"/>
<path d="M4764.93 64.4359L4829.35 64.4359L4829.35 0.0201874L4764.93 0.0201817C4729.35 0.0201786 4700.5 28.861 4700.5 64.4359L4700.5 128.852L4764.93 128.852L4764.93 64.4359Z" fill="#214FCF"/>
<path d="M5022.63 257.686L5022.63 193.27L4958.21 193.27L4958.21 257.686L4893.78 257.686L4893.78 322.102L4958.21 322.102C4993.79 322.102 5022.63 293.261 5022.63 257.686Z" fill="#214FCF"/>
<path d="M5808.4 1461.11L5743.97 1461.11L5743.97 1525.55L5679.55 1525.55L5679.55 1461.11L5679.55 1396.7L5808.4 1396.7L5808.4 1461.11Z" fill="white"/>
<path d="M5808.4 1267.86L5808.4 1332.28L5743.97 1332.28L5743.97 1267.86L5679.55 1267.86L5679.55 1203.45L5743.97 1203.45C5779.55 1203.45 5808.4 1232.29 5808.4 1267.86Z" fill="#214FCF"/>
<path d="M3979.17 399.957L3979.17 464.382L3914.74 464.382L3914.74 528.807L3979.17 528.807L4043.59 528.807L4043.59 399.957L3979.17 399.957Z" fill="white"/>
<path d="M4236.84 657.66L4236.84 593.234L4172.43 593.234L4172.43 657.66L4108.01 657.66L4108.01 722.085L4172.43 722.085C4208 722.085 4236.84 693.24 4236.84 657.66Z" fill="#214FCF"/>
<path d="M3979.17 657.66L3979.17 593.234L3914.76 593.234L3914.76 657.66C3914.76 693.24 3943.6 722.085 3979.17 722.085L4043.59 722.085L4043.59 657.66L3979.17 657.66Z" fill="#214FCF"/>
<path d="M4372.06 722.082L4372.06 657.657L4307.63 657.657L4307.63 593.232L4372.06 593.232L4436.48 593.232L4436.48 722.082L4372.06 722.082Z" fill="white"/>
<path d="M4629.73 464.379L4629.73 528.805L4565.31 528.805L4565.31 464.379L4500.9 464.379L4500.9 399.954L4565.31 399.954C4600.89 399.954 4629.73 428.799 4629.73 464.379Z" fill="#214FCF"/>
<path d="M5351.06 1925.53L5351.06 1861.1L5415.5 1861.1L5415.5 1796.67L5351.06 1796.67L5286.65 1796.67L5286.65 1925.53L5351.06 1925.53Z" fill="white"/>
<path d="M5093.4 1667.82L5093.4 1732.25L5157.81 1732.25L5157.81 1667.82L5222.23 1667.82L5222.23 1603.4L5157.81 1603.4C5122.24 1603.4 5093.4 1632.24 5093.4 1667.82Z" fill="#214FCF"/>
<path d="M5351.06 1667.82L5351.06 1732.25L5415.48 1732.25L5415.48 1667.82C5415.48 1632.24 5386.64 1603.4 5351.06 1603.4L5286.65 1603.4L5286.65 1667.82L5351.06 1667.82Z" fill="#214FCF"/>
<path d="M5351.08 399.957L5351.08 464.382L5415.51 464.382L5415.51 528.807L5351.08 528.807L5286.66 528.807L5286.66 399.957L5351.08 399.957Z" fill="white"/>
<path d="M5093.41 657.66L5093.41 593.234L5157.83 593.234L5157.83 657.66L5222.24 657.66L5222.24 722.085L5157.83 722.085C5122.25 722.085 5093.41 693.24 5093.41 657.66Z" fill="#214FCF"/>
<path d="M5351.08 657.66L5351.08 593.234L5415.49 593.234L5415.49 657.66C5415.49 693.24 5386.65 722.085 5351.08 722.085L5286.66 722.085L5286.66 657.66L5351.08 657.66Z" fill="#214FCF"/>
<path d="M5351.08 1199.89L5351.08 1264.32L5415.51 1264.32L5415.51 1328.74L5351.08 1328.74L5286.66 1328.74L5286.66 1199.89L5351.08 1199.89Z" fill="white"/>
<path d="M5351.08 1457.6L5351.08 1393.17L5415.49 1393.17L5415.49 1457.6C5415.49 1493.18 5386.65 1522.02 5351.08 1522.02L5286.66 1522.02L5286.66 1457.6L5351.08 1457.6Z" fill="#214FCF"/>
<path d="M5157.83 1199.89L5222.24 1199.89L5222.24 1264.32L5157.83 1264.32L5157.83 1328.74L5093.41 1328.74L5093.41 1264.32C5093.41 1228.74 5122.25 1199.89 5157.83 1199.89Z" fill="#214FCF"/>
<path d="M5351.06 2725.46L5351.06 2661.04L5415.5 2661.04L5415.5 2596.61L5351.06 2596.61L5286.65 2596.61L5286.65 2725.46L5351.06 2725.46Z" fill="white"/>
<path d="M5351.06 2467.76L5351.06 2532.19L5415.48 2532.19L5415.48 2467.76C5415.48 2432.18 5386.64 2403.34 5351.06 2403.34L5286.65 2403.34L5286.65 2467.76L5351.06 2467.76Z" fill="#214FCF"/>
<path d="M5157.81 2725.46L5222.23 2725.46L5222.23 2661.04L5157.81 2661.04L5157.81 2596.61L5093.4 2596.61L5093.4 2661.04C5093.4 2696.62 5122.24 2725.46 5157.81 2725.46Z" fill="#214FCF"/>
<path d="M4372.06 1522.02L4372.06 1457.59L4307.63 1457.59L4307.63 1393.17L4372.06 1393.17L4436.48 1393.17L4436.48 1522.02L4372.06 1522.02Z" fill="white"/>
<path d="M4629.73 1264.32L4629.73 1328.74L4565.31 1328.74L4565.31 1264.32L4500.9 1264.32L4500.9 1199.89L4565.31 1199.89C4600.89 1199.89 4629.73 1228.74 4629.73 1264.32Z" fill="#214FCF"/>
<path d="M4565.31 1522.02L4500.9 1522.02L4500.9 1457.59L4565.31 1457.59L4565.31 1393.17L4629.73 1393.17L4629.73 1457.59C4629.73 1493.17 4600.89 1522.02 4565.31 1522.02Z" fill="#214FCF"/>
<path d="M4372.05 2403.34L4372.05 2467.76L4307.61 2467.76L4307.61 2532.19L4372.05 2532.19L4436.46 2532.19L4436.46 2403.34L4372.05 2403.34Z" fill="white"/>
<path d="M4629.72 2661.04L4629.72 2596.61L4565.3 2596.61L4565.3 2661.04L4500.88 2661.04L4500.88 2725.46L4565.3 2725.46C4600.88 2725.46 4629.72 2696.62 4629.72 2661.04Z" fill="#214FCF"/>
<path d="M3914.73 1057.61H3979.16V1122.04H4043.58V1057.61V993.189H3914.73V1057.61Z" fill="white"/>
<path d="M4172.43 799.939H4108.01V864.355H4172.43V928.771H4236.86V864.355C4236.86 828.78 4208.01 799.939 4172.43 799.939Z" fill="#214FCF"/>
<path d="M4172.43 1057.61H4108.01V1122.02H4172.43C4208.01 1122.02 4236.86 1093.18 4236.86 1057.61V993.189H4172.43V1057.61Z" fill="#214FCF"/>
<path d="M4700.49 2067.81H4764.92V2003.38H4829.34V2067.81V2132.23H4700.49V2067.81Z" fill="white"/>
<path d="M4958.2 2067.81H4893.77V2003.4H4958.2C4993.78 2003.4 5022.62 2032.24 5022.62 2067.81V2132.23H4958.2V2067.81Z" fill="#214FCF"/>
<path d="M4700.49 2261.06V2196.65H4764.92V2261.06H4829.34V2325.48H4764.92C4729.34 2325.48 4700.49 2296.64 4700.49 2261.06Z" fill="#214FCF"/>
<path d="M5022.63 864.371L4958.21 864.371L4958.21 799.936L4893.78 799.936L4893.78 864.371L4893.78 928.787L5022.63 928.787L5022.63 864.371Z" fill="white"/>
<path d="M4764.93 864.371L4829.35 864.371L4829.35 799.956L4764.93 799.956C4729.35 799.956 4700.5 828.797 4700.5 864.371L4700.5 928.787L4764.93 928.787L4764.93 864.371Z" fill="#214FCF"/>
<path d="M5022.63 1057.62L5022.63 993.206L4958.21 993.206L4958.21 1057.62L4893.78 1057.62L4893.78 1122.04L4958.21 1122.04C4993.79 1122.04 5022.63 1093.2 5022.63 1057.62Z" fill="#214FCF"/>
<path d="M5415.52 1057.61L5351.1 1057.61L5351.1 1122.04L5286.67 1122.04L5286.67 1057.61L5286.67 993.189L5415.52 993.189L5415.52 1057.61Z" fill="white"/>
<path d="M5157.82 1057.61L5222.25 1057.61L5222.25 1122.02L5157.82 1122.02C5122.24 1122.02 5093.4 1093.18 5093.4 1057.61L5093.4 993.189L5157.82 993.189L5157.82 1057.61Z" fill="#214FCF"/>
<path d="M5415.52 864.355L5415.52 928.771L5351.1 928.771L5351.1 864.355L5286.67 864.355L5286.67 799.939L5351.1 799.939C5386.68 799.939 5415.52 828.78 5415.52 864.355Z" fill="#214FCF"/>
<path d="M5872.1 2467.8H5936.52V2403.36H6000.95V2467.8V2532.21H5872.1V2467.8Z" fill="white"/>
<path d="M6129.8 2467.8H6065.37V2403.38H6129.8C6165.38 2403.38 6194.22 2432.22 6194.22 2467.8V2532.21H6129.8V2467.8Z" fill="#214FCF"/>
<path d="M5872.1 2661.05V2596.63H5936.52V2661.05H6000.95V2725.46H5936.52C5900.94 2725.46 5872.1 2696.62 5872.1 2661.05Z" fill="#214FCF"/>
<path d="M6657.86 1457.59H6722.28V1522.02H6786.71V1457.59V1393.17H6657.86V1457.59Z" fill="white"/>
<path d="M6915.56 1199.92H6851.14V1264.34H6915.56V1328.75H6979.99V1264.34C6979.99 1228.76 6951.14 1199.92 6915.56 1199.92Z" fill="#214FCF"/>
<path d="M6980 2661.03L6915.57 2661.03L6915.57 2725.46L6851.15 2725.46L6851.15 2661.03L6851.15 2596.61L6980 2596.61L6980 2661.03Z" fill="white"/>
<path d="M6722.3 2661.03L6786.72 2661.03L6786.72 2725.44L6722.3 2725.44C6686.72 2725.44 6657.87 2696.6 6657.87 2661.03L6657.87 2596.61L6722.3 2596.61L6722.3 2661.03Z" fill="#214FCF"/>
<path d="M6980 2467.78L6980 2532.19L6915.57 2532.19L6915.57 2467.78L6851.15 2467.78L6851.15 2403.36L6915.57 2403.36C6951.15 2403.36 6980 2432.2 6980 2467.78Z" fill="#214FCF"/>
<path d="M7765.76 1264.35L7701.34 1264.35L7701.34 1199.92L7636.91 1199.92L7636.91 1264.35L7636.91 1328.77L7765.76 1328.77L7765.76 1264.35Z" fill="white"/>
<path d="M7765.76 1457.6L7765.76 1393.19L7701.34 1393.19L7701.34 1457.6L7636.91 1457.6L7636.91 1522.02L7701.34 1522.02C7736.92 1522.02 7765.76 1493.18 7765.76 1457.6Z" fill="#214FCF"/>
<path d="M5936.54 2325.51L5936.54 2261.08L5872.1 2261.08L5872.1 2196.66L5936.54 2196.66L6000.96 2196.66L6000.96 2325.51L5936.54 2325.51Z" fill="white"/>
<path d="M6194.21 2067.8L6194.21 2132.23L6129.79 2132.23L6129.79 2067.8L6065.37 2067.8L6065.37 2003.38L6129.79 2003.38C6165.37 2003.38 6194.21 2032.22 6194.21 2067.8Z" fill="#214FCF"/>
<path d="M5936.54 2067.8L5936.54 2132.23L5872.12 2132.23L5872.12 2067.8C5872.12 2032.22 5900.96 2003.38 5936.54 2003.38L6000.96 2003.38L6000.96 2067.8L5936.54 2067.8Z" fill="#214FCF"/>
<path d="M6329.43 2003.38L6329.43 2067.81L6265 2067.81L6265 2132.23L6329.43 2132.23L6393.85 2132.23L6393.85 2003.38L6329.43 2003.38Z" fill="white"/>
<path d="M6587.1 2261.09L6587.1 2196.66L6522.68 2196.66L6522.68 2261.09L6458.27 2261.09L6458.27 2325.51L6522.68 2325.51C6558.26 2325.51 6587.1 2296.67 6587.1 2261.09Z" fill="#214FCF"/>
<path d="M7308.43 799.939L7308.43 864.365L7372.86 864.365L7372.86 928.79L7308.43 928.79L7244.01 928.79L7244.01 799.939L7308.43 799.939Z" fill="white"/>
<path d="M7050.76 1057.64L7050.76 993.217L7115.18 993.217L7115.18 1057.64L7179.59 1057.64L7179.59 1122.07L7115.18 1122.07C7079.6 1122.07 7050.76 1093.22 7050.76 1057.64Z" fill="#214FCF"/>
<path d="M7308.43 1057.64L7308.43 993.217L7372.84 993.217L7372.84 1057.64C7372.84 1093.22 7344 1122.07 7308.43 1122.07L7244.01 1122.07L7244.01 1057.64L7308.43 1057.64Z" fill="#214FCF"/>
<path d="M7308.44 2325.51L7308.44 2261.08L7372.88 2261.08L7372.88 2196.66L7308.44 2196.66L7244.03 2196.66L7244.03 2325.51L7308.44 2325.51Z" fill="white"/>
<path d="M7050.78 2067.8L7050.78 2132.23L7115.19 2132.23L7115.19 2067.8L7179.61 2067.8L7179.61 2003.38L7115.19 2003.38C7079.62 2003.38 7050.78 2032.22 7050.78 2067.8Z" fill="#214FCF"/>
<path d="M7308.44 2067.8L7308.44 2132.23L7372.86 2132.23L7372.86 2067.8C7372.86 2032.22 7344.02 2003.38 7308.44 2003.38L7244.03 2003.38L7244.03 2067.8L7308.44 2067.8Z" fill="#214FCF"/>
<path d="M7308.44 1525.57L7308.44 1461.15L7372.88 1461.15L7372.88 1396.72L7308.44 1396.72L7244.03 1396.72L7244.03 1525.57L7308.44 1525.57Z" fill="white"/>
<path d="M7308.44 1267.87L7308.44 1332.29L7372.86 1332.29L7372.86 1267.87C7372.86 1232.29 7344.02 1203.44 7308.44 1203.44L7244.03 1203.44L7244.03 1267.87L7308.44 1267.87Z" fill="#214FCF"/>
<path d="M7115.19 1525.57L7179.61 1525.57L7179.61 1461.15L7115.19 1461.15L7115.19 1396.72L7050.78 1396.72L7050.78 1461.15C7050.78 1496.73 7079.62 1525.57 7115.19 1525.57Z" fill="#214FCF"/>
<path d="M7308.43 0.00195594L7308.43 64.4272L7372.86 64.4272L7372.86 128.852L7308.43 128.852L7244.01 128.852L7244.01 0.00195312L7308.43 0.00195594Z" fill="white"/>
<path d="M7308.43 257.705L7308.43 193.279L7372.84 193.279L7372.84 257.705C7372.84 293.285 7344 322.13 7308.43 322.13L7244.01 322.13L7244.01 257.705L7308.43 257.705Z" fill="#214FCF"/>
<path d="M7115.18 0.00195594L7179.59 0.00195876L7179.59 64.4272L7115.18 64.4272L7115.18 128.852L7050.76 128.852L7050.76 64.4272C7050.76 28.847 7079.6 0.00195439 7115.18 0.00195594Z" fill="#214FCF"/>
<path d="M6329.43 1203.45L6329.43 1267.87L6265 1267.87L6265 1332.3L6329.43 1332.3L6393.85 1332.3L6393.85 1203.45L6329.43 1203.45Z" fill="white"/>
<path d="M6587.1 1461.15L6587.1 1396.72L6522.68 1396.72L6522.68 1461.15L6458.27 1461.15L6458.27 1525.57L6522.68 1525.57C6558.26 1525.57 6587.1 1496.73 6587.1 1461.15Z" fill="#214FCF"/>
<path d="M6522.68 1203.45L6458.27 1203.45L6458.27 1267.87L6522.68 1267.87L6522.68 1332.3L6587.1 1332.3L6587.1 1267.87C6587.1 1232.29 6558.26 1203.45 6522.68 1203.45Z" fill="#214FCF"/>
<path d="M6329.41 322.129L6329.41 257.704L6264.98 257.704L6264.98 193.278L6329.41 193.278L6393.83 193.278L6393.83 322.129L6329.41 322.129Z" fill="white"/>
<path d="M6587.08 64.4263L6587.08 128.852L6522.67 128.852L6522.67 64.4263L6458.25 64.4264L6458.25 0.00115004L6522.67 0.00114722C6558.24 0.00114567 6587.08 28.8462 6587.08 64.4263Z" fill="#214FCF"/>
<path d="M5872.1 1667.86H5936.52V1603.42H6000.95V1667.86V1732.28H5872.1V1667.86Z" fill="white"/>
<path d="M6129.8 1925.53H6065.37V1861.11H6129.8V1796.69H6194.22V1861.11C6194.22 1896.68 6165.38 1925.53 6129.8 1925.53Z" fill="#214FCF"/>
<path d="M6129.8 1667.86H6065.37V1603.44H6129.8C6165.38 1603.44 6194.22 1632.28 6194.22 1667.86V1732.28H6129.8V1667.86Z" fill="#214FCF"/>
<path d="M6657.86 657.65H6722.28V722.085H6786.71V657.65V593.234H6657.86V657.65Z" fill="white"/>
<path d="M6915.56 657.65H6851.14V722.066H6915.56C6951.14 722.066 6979.99 693.225 6979.99 657.65V593.234H6915.56V657.65Z" fill="#214FCF"/>
<path d="M6657.86 464.4V528.816H6722.28V464.4H6786.71V399.984H6722.28C6686.7 399.984 6657.86 428.825 6657.86 464.4Z" fill="#214FCF"/>
<path d="M6980 1861.09L6915.57 1861.09L6915.57 1925.53L6851.15 1925.53L6851.15 1861.09L6851.15 1796.68L6980 1796.68L6980 1861.09Z" fill="white"/>
<path d="M6722.3 1861.09L6786.72 1861.09L6786.72 1925.51L6722.3 1925.51C6686.72 1925.51 6657.87 1896.67 6657.87 1861.09L6657.87 1796.68L6722.3 1796.68L6722.3 1861.09Z" fill="#214FCF"/>
<path d="M6980 1667.84L6980 1732.26L6915.57 1732.26L6915.57 1667.84L6851.15 1667.84L6851.15 1603.43L6915.57 1603.43C6951.15 1603.43 6980 1632.27 6980 1667.84Z" fill="#214FCF"/>
<path d="M7372.89 1667.86L7308.46 1667.86L7308.46 1603.42L7244.04 1603.42L7244.04 1667.86L7244.04 1732.28L7372.89 1732.28L7372.89 1667.86Z" fill="white"/>
<path d="M7115.18 1667.86L7179.61 1667.86L7179.61 1603.44L7115.18 1603.44C7079.6 1603.44 7050.76 1632.28 7050.76 1667.86L7050.76 1732.28L7115.18 1732.28L7115.18 1667.86Z" fill="#214FCF"/>
<path d="M7372.89 1861.11L7372.89 1796.69L7308.46 1796.69L7308.46 1861.11L7244.04 1861.11L7244.04 1925.53L7308.46 1925.53C7344.04 1925.53 7372.89 1896.68 7372.89 1861.11Z" fill="#214FCF"/>
</svg>
