<svg width="7293" height="1435" viewBox="0 0 7293 1435" fill="none" xmlns="http://www.w3.org/2000/svg">
<path d="M2750.29 225.038H2426.5V0H2194.64V639.182H2426.5V396.921H2750.29V639.182H2981.36V0H2750.29V225.038Z" fill="#FFF6DC"/>
<path d="M3360.88 0H3129.03V639.27H3360.88V0Z" fill="#FFF6DC"/>
<path d="M3944.23 639.182V176.079H4200.2V0H3457.28V176.079H3713.25V639.182H3944.23Z" fill="#FFF6DC"/>
<path d="M4828.75 639.182H5059.82V176.079H5315.7V0H4572.86V176.079H4828.75V639.182Z" fill="#FFF6DC"/>
<path d="M5645.96 396.921H5969.75V639.182H6200.82V0H5969.75V225.038H5645.96V0H5414.11V639.182H5645.96V396.921Z" fill="#FFF6DC"/>
<path d="M6992.86 482.862H6579.75V395.172H6973.9V236.229H6579.75V154.659H6986.83V0H6348.69V639.182H6992.86V482.862Z" fill="#FFF6DC"/>
<path d="M2906.62 1282.21C2906.62 1188.58 2854.27 1136.12 2767.49 1116.36C2847.37 1098.35 2902.34 1044.15 2902.34 964.328V955.76C2902.34 886.168 2874.9 784.752 2631.77 784.752H2201.53V1423.93H2378.42V1206.59H2608.61C2697.93 1206.59 2727.99 1244.36 2727.99 1326.89V1379.26C2727.99 1407.59 2731.4 1419.65 2734.02 1423.93H2916.93V1419.65C2911.78 1409.33 2906.62 1396.48 2906.62 1348.31V1282.13V1282.21ZM2716.8 993.529C2716.8 1030.51 2697.05 1061.37 2624.87 1061.37H2378.42V925.598H2624.87C2696.97 925.598 2716.8 955.673 2716.8 991.78V993.529Z" fill="#FFF6DC"/>
<path d="M3223.33 1172.23H3620.96V1027.89H3223.33V923.937H3633.9V784.752H3049.06V1423.93H3639.05V1283.09H3223.33V1172.23Z" fill="#FFF6DC"/>
<path d="M4157.38 775.307H4117.88C3825.9 775.307 3748.56 956.632 3748.56 1089.78V1115.57C3748.56 1246.19 3825.82 1433.46 4117.88 1433.46H4157.38C4428.74 1433.46 4514.65 1293.4 4514.65 1176.6V1174.06H4332.61C4330.07 1193.82 4308.57 1286.58 4138.51 1286.58C3982.16 1286.58 3932.35 1186.04 3932.35 1107.01V1094.94C3932.35 1009 3981.29 921.398 4137.63 921.398C4306.83 921.398 4329.99 1011.62 4332.61 1029.63H4514.65V1027.89C4514.65 906.711 4425.33 775.307 4157.38 775.307Z" fill="#FFF6DC"/>
<path d="M5033.52 774.43H4995.77C4696.88 774.43 4611.85 950.596 4611.85 1089.78V1115.57C4611.85 1253.01 4696.88 1434.33 4995.77 1434.33H5033.52C5332.4 1434.33 5417.44 1253.01 5417.44 1115.57V1089.78C5417.44 950.596 5332.4 774.43 5033.52 774.43ZM5233.65 1108.66C5233.65 1185.95 5194.15 1287.37 5014.64 1287.37C4835.14 1287.37 4795.63 1185.95 4795.63 1108.66V1096.6C4795.63 1017.57 4836.01 920.434 5014.64 920.434C5193.27 920.434 5233.65 1017.57 5233.65 1096.6V1108.66Z" fill="#FFF6DC"/>
<path d="M6252.81 1282.21C6252.81 1188.58 6200.47 1136.12 6113.68 1116.36C6193.56 1098.35 6248.53 1044.15 6248.53 964.328V955.76C6248.53 886.168 6221.09 784.752 5977.96 784.752H5547.73V1423.93H5724.61V1206.59H5954.8C6044.12 1206.59 6074.18 1244.36 6074.18 1326.89V1379.26C6074.18 1407.59 6077.59 1419.65 6080.21 1423.93H6263.13V1419.65C6257.97 1409.33 6252.81 1396.48 6252.81 1348.31V1282.13V1282.21ZM6063 993.529C6063 1030.51 6043.25 1061.37 5971.15 1061.37H5724.7V925.598H5971.15C6043.25 925.598 6063 955.673 6063 991.78V993.529Z" fill="#FFF6DC"/>
<path d="M6722.47 784.752H6395.27V1423.93H6723.34C7073.79 1423.93 7132.17 1241.82 7132.17 1107.8V1082.01C7132.17 952.263 7055.7 784.752 6722.47 784.752ZM6948.38 1104.3C6948.38 1176.51 6929.5 1281.25 6714.78 1281.25H6572.24V926.385H6714.78C6927.76 926.385 6948.38 1027.8 6948.38 1099.05V1104.21V1104.3Z" fill="#FFF6DC"/>
<path d="M7288.76 1347.09C7286.31 1340.09 7282.55 1334.67 7277.48 1330.74C7272.42 1326.89 7266.65 1324.18 7260.09 1322.61C7253.54 1321.03 7245.67 1320.25 7236.5 1320.25C7227.32 1320.25 7219.37 1321.03 7212.9 1322.61C7206.35 1324.18 7200.58 1326.89 7195.51 1330.74C7190.44 1334.58 7186.68 1340.09 7184.24 1347.09C7181.79 1354.08 7180.57 1362.82 7180.57 1373.31C7180.57 1383.8 7181.7 1391.94 7184.06 1398.84C7186.33 1405.75 7190 1411.17 7194.9 1415.19C7199.79 1419.13 7205.56 1422.01 7212.2 1423.67C7218.84 1425.33 7226.97 1426.21 7236.58 1426.21C7246.2 1426.21 7254.33 1425.33 7260.97 1423.67C7267.61 1422.01 7273.38 1419.21 7278.27 1415.19C7283.16 1411.26 7286.75 1405.75 7289.11 1398.84C7291.38 1391.94 7292.6 1383.46 7292.6 1373.31C7292.6 1363.17 7291.38 1354.08 7288.93 1347.09H7288.76ZM7281.07 1396.39C7278.97 1402.43 7275.74 1407.06 7271.37 1410.21C7266.91 1413.36 7262.02 1415.54 7256.68 1416.77C7251.27 1417.9 7244.54 1418.51 7236.5 1418.51C7228.46 1418.51 7221.73 1417.9 7216.31 1416.77C7210.89 1415.63 7206 1413.44 7201.63 1410.21C7197.26 1407.06 7193.94 1402.43 7191.93 1396.39C7189.83 1390.36 7188.87 1382.67 7188.87 1373.4C7188.87 1365.62 7189.57 1359.06 7191.05 1353.55C7192.54 1348.05 7194.55 1343.68 7197 1340.35C7199.53 1337.03 7202.85 1334.5 7207.05 1332.66C7211.24 1330.82 7215.61 1329.51 7220.07 1328.9C7224.52 1328.29 7230.03 1327.94 7236.5 1327.94C7244.54 1327.94 7251.18 1328.46 7256.51 1329.6C7261.84 1330.65 7266.65 1332.75 7271.1 1335.89C7275.56 1339.04 7278.88 1343.68 7280.98 1349.8C7283.08 1355.92 7284.13 1363.78 7284.13 1373.4C7284.13 1383.02 7283.08 1390.36 7281.07 1396.39Z" fill="#FFF6DC"/>
<path d="M7236.68 1393.95C7229.95 1393.95 7224.88 1392.55 7221.47 1389.66C7218.07 1386.78 7216.41 1381.53 7216.41 1373.93C7216.41 1365.88 7218.07 1360.37 7221.47 1357.49C7224.88 1354.6 7229.95 1353.12 7236.68 1353.12C7247.69 1353.12 7253.46 1356.88 7254.16 1364.31H7262.29C7260.98 1352.24 7252.5 1346.21 7236.68 1346.21C7227.33 1346.21 7220.34 1348.31 7215.53 1352.42C7210.81 1356.62 7208.37 1363.7 7208.37 1373.84C7208.37 1383.98 7210.72 1390.62 7215.53 1394.65C7220.25 1398.76 7227.33 1400.77 7236.68 1400.77C7252.76 1400.77 7261.41 1394.65 7262.55 1382.49H7254.6C7253.81 1390.01 7247.87 1393.77 7236.68 1393.77V1393.95Z" fill="#FFF6DC"/>
<path d="M0.453369 1147.4H287.19V1434.25H573.926V1147.4V860.548H0.453369V1147.4Z" fill="#FFF6DC"/>
<path d="M1147.41 0H860.673V286.85H1147.41V573.699H1434.15V286.85C1434.15 128.431 1305.77 0 1147.41 0Z" fill="#214FCF"/>
<path d="M1147.41 1147.4H860.673V1434.25H1147.41C1305.77 1434.25 1434.15 1305.82 1434.15 1147.4V860.548H1147.41V1147.4Z" fill="#214FCF"/>
<path d="M0.453369 286.85V573.699H287.19V286.85H573.926V0H287.19C128.834 0 0.453369 128.431 0.453369 286.85Z" fill="#214FCF"/>
</svg>
